<svg width="22" height="18" viewBox="0 0 22 18" fill="none" xmlns="http://www.w3.org/2000/svg">
<path d="M2.51317 3.5835C1.80872 3.5835 1.23726 4.15478 1.23726 4.8595V7.4274C0.528007 7.60166 0 8.23692 0 8.99982C0 9.76294 0.527962 10.3982 1.23726 10.5724V13.14C1.23726 13.8448 1.80872 14.416 2.51317 14.416C3.21757 14.416 3.78912 13.8448 3.78912 13.14V4.8595C3.78912 4.15482 3.21757 3.5835 2.51317 3.5835Z" fill="white"/>
<path d="M15.1565 0.957764C14.1101 0.957764 13.262 1.80594 13.262 2.8523V7.10536H12.6819H9.93678H9.04755L8.73822 7.09797V2.8523C8.73822 1.80598 7.89 0.957764 6.84363 0.957764C5.79736 0.957764 4.9491 1.80594 4.9491 2.8523V15.1476C4.9491 16.194 5.79736 17.0422 6.84363 17.0422C7.89004 17.0422 8.73822 16.194 8.73822 15.1476V10.9041C8.73822 10.9041 8.94216 10.8946 9.04755 10.8946H9.93678H12.6819H13.262V15.1476C13.262 16.194 14.1101 17.0422 15.1565 17.0422C16.2029 17.0422 17.051 16.194 17.051 15.1476V2.85226C17.051 1.80598 16.2029 0.957764 15.1565 0.957764Z" fill="white"/>
<path d="M20.7628 7.4274V4.8595C20.7628 4.15482 20.1912 3.5835 19.4869 3.5835C18.7824 3.5835 18.2109 4.15478 18.2109 4.8595V13.14C18.2109 13.8448 18.7824 14.416 19.4869 14.416C20.1912 14.416 20.7628 13.8448 20.7628 13.14V10.5724C21.472 10.3982 22.0001 9.76294 22.0001 8.99982C22 8.23688 21.472 7.60166 20.7628 7.4274Z" fill="white"/>
</svg>
