<svg width="48" height="48" viewBox="0 0 48 48" fill="none" xmlns="http://www.w3.org/2000/svg">
<path d="M14.5 19.5C14.5 19.5 24 19.5 28.5 15.5C28.5 15.5 36.5 16.5 36.5 25.5C36 35 30.6 42.5 24 42.5C17.4 42.5 12 35 11.5 25.5" stroke="#FDFDFF" stroke-width="3" stroke-miterlimit="10" stroke-linecap="round" stroke-linejoin="round"/>
<path d="M5.6 20.8C4.9 23.8 4.5 27.4 4.5 31.5V36.5C4.5 38.7 6.3 40.5 8.5 40.5H12.1" stroke="#FDFDFF" stroke-width="3" stroke-miterlimit="10" stroke-linecap="round" stroke-linejoin="round"/>
<path d="M36.5 40.5H39.5C41.7 40.5 43.5 38.7 43.5 36.5V31.5C43.5 12.5 34.3 8 30 8C30 8 28 5.5 23 5.5C17.3 5.5 12 7.9 8.5 13.6" stroke="#FDFDFF" stroke-width="3" stroke-miterlimit="10" stroke-linecap="round" stroke-linejoin="round"/>
<path d="M19 30C20.1046 30 21 29.1046 21 28C21 26.8954 20.1046 26 19 26C17.8954 26 17 26.8954 17 28C17 29.1046 17.8954 30 19 30Z" fill="#FDFDFF"/>
<path d="M29 30C30.1046 30 31 29.1046 31 28C31 26.8954 30.1046 26 29 26C27.8954 26 27 26.8954 27 28C27 29.1046 27.8954 30 29 30Z" fill="#FDFDFF"/>
</svg>
