<svg xmlns="http://www.w3.org/2000/svg"  viewBox="0 0 48 48" width="48px" height="48px"><path fill="none" stroke="#000" stroke-linecap="round" stroke-linejoin="round" stroke-miterlimit="10" stroke-width="3" d="M14.5,19.5c0,0,9.5,0,14-4c0,0,8,1,8,10c-0.5,9.5-5.9,17-12.5,17s-12-7.5-12.5-17"/><path fill="none" stroke="#000" stroke-linecap="round" stroke-linejoin="round" stroke-miterlimit="10" stroke-width="3" d="M5.6,20.8c-0.7,3-1.1,6.6-1.1,10.7v5c0,2.2,1.8,4,4,4h3.6"/><path fill="none" stroke="#000" stroke-linecap="round" stroke-linejoin="round" stroke-miterlimit="10" stroke-width="3" d="M36.5,40.5h3c2.2,0,4-1.8,4-4v-5C43.5,12.5,34.3,8,30,8c0,0-2-2.5-7-2.5c-5.7,0-11,2.4-14.5,8.1"/><circle cx="19" cy="28" r="2"/><circle cx="29" cy="28" r="2"/></svg>