<?xml version="1.0" ?><svg xmlns="http://www.w3.org/2000/svg" xmlns:xlink="http://www.w3.org/1999/xlink" version="1.1" viewBox="0 0 64 64" style="enable-background:new 0 0 64 64;" xml:space="preserve"><g id="Grid"/><g id="Object"><g><path d="M60.95,37.76H44.1V29.2c0-0.63-0.51-1.13-1.13-1.13h-9.89v-3.54c4.51-0.56,8.01-4.41,8.01-9.06V7.45H22.8v8.01    c0,4.65,3.5,8.5,8.01,9.06v3.54h-7.86c-0.63,0-1.13,0.51-1.13,1.13v11.99H3.21c-0.63,0-1.13,0.51-1.13,1.13v13.1    c0,0.63,0.51,1.13,1.13,1.13h57.74c0.63,0,1.13-0.51,1.13-1.13V38.89C62.08,38.27,61.57,37.76,60.95,37.76z M25.07,15.46V9.72    h13.75v5.74c0,3.79-3.08,6.88-6.88,6.88C28.15,22.34,25.07,19.25,25.07,15.46z M59.82,54.28H4.34V43.45h18.6    c0.63,0,1.13-0.51,1.13-1.13V30.33h17.76v8.56c0,0.63,0.51,1.13,1.13,1.13h16.85V54.28z"/><path d="M33.98,19.89c0.17,0.09,0.35,0.13,0.53,0.13c0.23,0,0.47-0.07,0.67-0.22c0.35-0.25,0.52-0.68,0.45-1.11l-0.36-2.12    l1.54-1.5c0.31-0.3,0.42-0.75,0.29-1.16c-0.13-0.41-0.49-0.71-0.91-0.77l-2.13-0.31l-0.95-1.93c-0.38-0.77-1.65-0.77-2.03,0    l-0.95,1.93l-2.13,0.31c-0.43,0.06-0.78,0.36-0.91,0.77c-0.13,0.41-0.02,0.86,0.29,1.16l1.54,1.5l-0.36,2.12    c-0.07,0.42,0.1,0.85,0.45,1.11c0.35,0.25,0.81,0.29,1.19,0.09l1.9-1L33.98,19.89z M31.55,16.61l-0.4,0.21l0.08-0.44    c0.06-0.37-0.06-0.74-0.33-1l-0.32-0.31L31.03,15c0.37-0.05,0.69-0.29,0.85-0.62l0.2-0.4l0.2,0.4c0.16,0.33,0.48,0.57,0.85,0.62    l0.44,0.07l-0.32,0.31c-0.27,0.26-0.39,0.63-0.33,1L33,16.82l-0.4-0.21C32.28,16.44,31.88,16.44,31.55,16.61z"/></g></g></svg>