<svg width="56" height="51" viewBox="0 0 56 51" fill="none" xmlns="http://www.w3.org/2000/svg">
<path d="M54.9453 31.4893H39.2187V22.5963C39.2187 21.9417 38.7427 21.4223 38.164 21.4223H28.9333V17.7446C33.1427 17.1628 36.4093 13.163 36.4093 8.33204V0H19.3387V8.32165C19.3387 13.1526 22.6053 17.1524 26.8147 17.7342V21.4119H19.4787C18.8907 21.4119 18.424 21.9417 18.424 22.5859V35.0424H1.05467C0.466667 35.0424 0 35.5722 0 36.2163V49.826C0 50.4805 0.476 51 1.05467 51H54.9453C55.5333 51 56 50.4702 56 49.826V32.6633C56 32.0191 55.524 31.4893 54.9453 31.4893ZM21.4573 8.32165V2.35832H34.2907V8.32165C34.2907 12.2591 31.416 15.4693 27.8693 15.4693C24.332 15.4693 21.4573 12.2591 21.4573 8.32165ZM53.8907 48.6521H2.10933V37.4007H19.4693C20.0573 37.4007 20.524 36.8708 20.524 36.2267V23.7702H37.1V32.6633C37.1 33.3178 37.576 33.8372 38.1547 33.8372H53.8813V48.6521H53.8907Z" fill="#142939"/>
<path d="M29.7733 12.924C29.932 13.0175 30.1 13.0591 30.268 13.0591C30.4827 13.0591 30.7067 12.9863 30.8933 12.8305C31.22 12.5708 31.3787 12.124 31.3133 11.6773L30.9773 9.47483L32.4147 7.91647C32.704 7.6048 32.8067 7.13729 32.6853 6.71134C32.564 6.28538 32.228 5.97371 31.836 5.91138L29.848 5.58932L28.9613 3.58422C28.6067 2.78426 27.4213 2.78426 27.0667 3.58422L26.18 5.58932L24.192 5.91138C23.7907 5.97371 23.464 6.28538 23.3427 6.71134C23.2213 7.13729 23.324 7.6048 23.6133 7.91647L25.0507 9.47483L24.7147 11.6773C24.6493 12.1137 24.808 12.5604 25.1347 12.8305C25.4613 13.0902 25.8907 13.1318 26.2453 12.924L28.0187 11.8851L29.7733 12.924ZM27.5053 9.51639L27.132 9.73456L27.2067 9.27744C27.2627 8.89304 27.1507 8.50865 26.8987 8.23853L26.6 7.91647L27.02 7.84375C27.3653 7.7918 27.664 7.54246 27.8133 7.19962L28 6.78406L28.1867 7.19962C28.336 7.54246 28.6347 7.7918 28.98 7.84375L29.3907 7.91647L29.092 8.23853C28.84 8.50865 28.728 8.89304 28.784 9.27744L28.8587 9.73456L28.4853 9.51639C28.1867 9.33978 27.8133 9.33978 27.5053 9.51639Z" fill="#142939"/>
</svg>
