<svg width="28" height="28" viewBox="0 0 28 28" fill="none" xmlns="http://www.w3.org/2000/svg">
<path d="M26.25 9.45L23.3334 11.0542L20.4167 13.825V23.3333H24.5C25.4666 23.3333 26.25 22.5499 26.25 21.5833V9.45Z" fill="#4CAF50"/>
<path d="M1.75 9.45L3.85817 10.4475L7.58333 13.825V23.3333H3.5C2.53342 23.3333 1.75 22.5499 1.75 21.5833V9.45Z" fill="#1E88E5"/>
<path d="M20.4167 6.53334L14 11.3458L7.58333 6.53334L7 9.91667L7.58333 13.825L14 18.6375L20.4167 13.825L21 9.91667L20.4167 6.53334Z" fill="#E53935"/>
<path d="M1.75 7.17384V9.45001L7.58333 13.825V6.53334L5.761 5.16776C5.327 4.84226 4.79967 4.66667 4.25717 4.66667C2.87233 4.66667 1.75 5.78901 1.75 7.17384Z" fill="#C62828"/>
<path d="M26.25 7.17384V9.45001L20.4167 13.825V6.53334L22.239 5.16776C22.673 4.84226 23.2004 4.66667 23.7429 4.66667C25.1277 4.66667 26.25 5.78901 26.25 7.17384Z" fill="#FBC02D"/>
</svg>
