<svg width="32" height="32" viewBox="0 0 32 32" fill="none" xmlns="http://www.w3.org/2000/svg">
<g clip-path="url(#clip0_298_113)">
<path d="M31.0284 13.6767L18.3216 0.96991C17.0284 -0.323303 14.9238 -0.323303 13.6306 0.96991L1.00315 13.5973C-0.316317 14.9168 -0.316317 17.0625 1.00315 18.382L13.6631 31.0419C14.2809 31.6597 15.1025 32 15.9761 32C16.8496 32 17.6713 31.6597 18.2891 31.0419L31.0284 18.3026C31.6462 17.6848 31.9865 16.8632 31.9865 15.9896C31.9864 15.1161 31.6462 14.2945 31.0284 13.6767ZM26.2534 17.4171C26.2534 18.519 25.357 19.4155 24.255 19.4155C23.9056 19.4155 23.5824 19.3173 23.2963 19.1597C23.0394 19.967 22.2914 20.5574 21.4001 20.5574C20.2982 20.5574 19.4017 19.661 19.4017 18.559V17.7026H12.5503V18.559C12.5503 19.661 11.6539 20.5574 10.5519 20.5574C9.66059 20.5574 8.91263 19.967 8.65571 19.1597C8.36967 19.3173 8.04651 19.4155 7.69703 19.4155C6.59508 19.4155 5.69864 18.5191 5.69864 17.4171V14.5623C5.69864 13.4603 6.59502 12.5639 7.69703 12.5639C8.04644 12.5639 8.36961 12.6621 8.65571 12.8197C8.91263 12.0123 9.66059 11.422 10.5519 11.422C11.6538 11.422 12.5503 12.3183 12.5503 13.4204V14.2768H19.4018V13.4203C19.4018 12.3183 20.2982 11.4219 21.4002 11.4219C22.2915 11.4219 23.0395 12.0123 23.2964 12.8196C23.5824 12.662 23.9056 12.5638 24.2551 12.5638C25.357 12.5638 26.2535 13.4602 26.2535 14.5622V17.4171H26.2534Z" fill="white"/>
</g>
<defs>
<clipPath id="clip0_298_113">
<rect width="32" height="32" fill="white"/>
</clipPath>
</defs>
</svg>
