<svg width="32" height="32" viewBox="0 0 32 32" fill="none" xmlns="http://www.w3.org/2000/svg">
<path d="M8.93333 9.20001L6.53333 11.1333C5.6 11.8667 5 13.0667 5 14.2667V26.3333C5 27.0667 5.6 27.6667 6.33333 27.6667H19.6667" stroke="white" stroke-width="3" stroke-miterlimit="10" stroke-linecap="round" stroke-linejoin="round"/>
<path d="M23.3333 27.6666H25.6667C26.4 27.6666 27 27.0666 27 26.3333V14.2666C27 13.0666 26.4667 11.8666 25.4667 11.1333L16.4 3.99998C16.1333 3.79998 15.8 3.79998 15.6 3.99998L12.5333 6.39998" stroke="white" stroke-width="3" stroke-miterlimit="10" stroke-linecap="round" stroke-linejoin="round"/>
<path d="M12.3334 23.8V18.3334C12.3334 17.9334 12.6 17.6667 13 17.6667H18.9334C19.3334 17.6667 19.6 17.9334 19.6 18.3334V27.6667" stroke="white" stroke-width="3" stroke-miterlimit="10" stroke-linecap="round" stroke-linejoin="round"/>
</svg>
