<svg xmlns="http://www.w3.org/2000/svg"  viewBox="0 0 48 48" width="48px" height="48px"><circle cx="19" cy="26" r="2"/><circle cx="29" cy="26" r="2"/><path fill="none" stroke="#000" stroke-linecap="round" stroke-linejoin="round" stroke-miterlimit="10" stroke-width="3" d="M19.2,6.2c-5.6,1.6-8.7,6-8.7,12.3v4.4c-1.2,0.6-2,1.7-2,3.1c0,1.9,1.6,3.5,3.5,3.5c0,0,0,0,0.1,0	c1.6,7.5,6.3,13,11.9,13s10.4-5.5,11.9-13c0,0,0,0,0.1,0c1.9,0,3.5-1.6,3.5-3.5c0-1.4-0.8-2.6-2-3.1"/><path fill="none" stroke="#000" stroke-linecap="round" stroke-linejoin="round" stroke-miterlimit="10" stroke-width="3" d="M16.5,16.5c1.9-1.5,2.5-3,2.5-3s3,3,11,3c3.3,0,6-0.5,7.4-0.9c0.9-0.3,1.4-1.3,1-2.2C36.3,9.1,32,6,26,5.6"/></svg>