<svg width="56" height="56" viewBox="0 0 56 56" fill="none" xmlns="http://www.w3.org/2000/svg">
<g clip-path="url(#clip0_298_142)">
<path d="M48.7138 0.368347H7.96241C3.97066 0.368347 0.722656 3.61635 0.722656 7.6116V48.3586C0.722656 52.353 3.97153 55.6018 7.96241 55.6018H48.7138C52.7064 55.6018 55.9562 52.353 55.9562 48.3586V7.6116C55.9562 3.61722 52.7064 0.368347 48.7138 0.368347ZM41.4557 12.3235C36.6747 12.7863 36.3973 7.33072 36.3973 7.33072C41.9947 7.7656 41.4557 12.3235 41.4557 12.3235ZM17.5367 17.8255C18.2673 20.6753 16.2434 23.044 13.614 23.24C13.5169 19.9106 15.3264 18.6523 17.5367 17.8255ZM17.5367 22.9591C18.2673 25.8063 16.2434 28.1758 13.614 28.371C13.5169 25.0433 15.3264 23.7842 17.5367 22.9591ZM17.5367 28.0918C18.2673 30.9382 16.2434 33.3086 13.614 33.502C13.5169 30.1743 15.3264 28.9187 17.5367 28.0918ZM11.3539 13.4505C13.0602 15.0841 14.2274 16.9592 12.8195 19.9753C10.4833 18.7556 9.56191 15.7788 11.3539 13.4505ZM8.39816 19.1651C10.6067 19.9937 12.4179 21.2528 12.319 24.5814C9.68966 24.3836 7.66403 22.0158 8.39816 19.1651ZM8.39816 24.2996C10.6067 25.1247 12.4179 26.3838 12.319 29.7115C9.68966 29.5172 7.66403 27.1468 8.39816 24.2996ZM8.39816 29.4315C10.6067 30.2601 12.4179 31.514 12.319 34.8433C9.68966 34.65 7.66403 32.2796 8.39816 29.4315ZM19.4135 49.6877L28.3394 34.223L37.2635 49.6877H19.4135ZM9.71328 39.1527L9.14803 37.0764L46.9664 26.7872L47.5282 28.8653L9.71328 39.1527ZM48.0444 21.7428C48.0444 21.7428 46.7092 24.2541 45.6802 25.3776C45.177 25.8799 44.4307 26.2377 43.6677 26.2377C43.2246 26.2391 42.7878 26.1341 42.3938 25.9314C41.9999 25.7287 41.6604 25.4344 41.404 25.0731C41.1473 25.4345 40.8075 25.7288 40.4133 25.9315C40.0191 26.1342 39.5819 26.2392 39.1387 26.2377C38.3765 26.2377 37.6302 25.8799 37.127 25.3776C36.0972 24.2541 34.7628 21.7428 34.7628 21.7428C34.0147 20.2239 33.6139 19.0487 33.6139 17.8605C33.6139 15.33 35.6623 13.1346 38.1989 13.1346C39.4484 13.1346 40.5772 13.6351 41.4049 14.4445C42.2599 13.604 43.4111 13.1336 44.61 13.1346C47.1467 13.1346 49.195 15.33 49.195 17.8605C49.1942 19.0487 48.7925 20.2239 48.0444 21.7428Z" fill="#142939"/>
<path d="M22.9609 47.6394H33.7191L28.3404 38.3215L22.9609 47.6394Z" fill="#142939"/>
</g>
<defs>
<clipPath id="clip0_298_142">
<rect width="56" height="56" fill="white"/>
</clipPath>
</defs>
</svg>
