<?xml version="1.0" ?><svg viewBox="0 0 512 512" xmlns="http://www.w3.org/2000/svg"><g id="Body_Weight"><path d="M391.2861,107.0547H120.7139a24.7377,24.7377,0,0,0-24.71,24.7095V380.2358a24.7377,24.7377,0,0,0,24.71,24.7095H391.2861a24.7377,24.7377,0,0,0,24.71-24.7095V131.7642A24.7377,24.7377,0,0,0,391.2861,107.0547Zm-86.333,77.6113H207.0469v-2.6391c0-21.8365,21.96-39.6016,48.9531-39.6016s48.9531,17.7651,48.9531,39.6016ZM256,129.4253c-19.8911,0-37.61,8.0093-48.9531,20.4192v-29.79h97.9062v29.79C293.61,137.4346,275.8911,129.4253,256,129.4253Zm61.9531-9.3706h73.333a11.7229,11.7229,0,0,1,11.71,11.7095V380.2358a11.7229,11.7229,0,0,1-11.71,11.7095H120.7139a11.7229,11.7229,0,0,1-11.71-11.7095V131.7642a11.7229,11.7229,0,0,1,11.71-11.7095h73.333V197.666H317.9531Z"/><rect height="26.2031" width="13" x="249.5" y="150.6143"/><path d="M208.7361,249.0063a33.7332,33.7332,0,0,0-26.9148-36.9838q-1.1322-.2213-2.2644-.4419a33.5947,33.5947,0,0,0-39.5879,27.5221,160.1419,160.1419,0,0,0,15.2793,99.0614,33.5947,33.5947,0,0,0,46.0405,14.3149l2.0263-1.1038A33.7333,33.7333,0,0,0,217.8352,308,114.4991,114.4991,0,0,1,208.7361,249.0063Z"/><path d="M332.4431,211.5806q-1.132.2208-2.2644.4419a33.7332,33.7332,0,0,0-26.9148,36.9838A114.4991,114.4991,0,0,1,294.1648,308a33.7333,33.7333,0,0,0,14.52,43.375l2.0263,1.1038a33.5947,33.5947,0,0,0,46.0405-14.3149,160.1419,160.1419,0,0,0,15.2793-99.0614A33.5947,33.5947,0,0,0,332.4431,211.5806Z"/></g></svg>