<svg width="58" height="55" viewBox="0 0 58 55" fill="none" xmlns="http://www.w3.org/2000/svg">
<path d="M40.5456 36.2485C40.3243 36.1648 40.0877 36.1232 39.8494 36.1263C39.6112 36.1294 39.3759 36.177 39.157 36.2664C38.9382 36.3558 38.7401 36.4852 38.574 36.6473C38.408 36.8094 38.2773 37.0009 38.1894 37.211C38.1011 37.4209 38.0573 37.6452 38.0606 37.8712C38.0638 38.0971 38.114 38.3202 38.2083 38.5278C38.3025 38.7353 38.439 38.9232 38.61 39.0806C38.7809 39.2381 38.9829 39.362 39.2044 39.4454C41.8506 40.4422 43.5 41.8 43.5 42.9688C43.5 45.0657 37.845 48.125 29 48.125C20.155 48.125 14.5 45.0657 14.5 42.9688C14.5 41.8 16.1494 40.4422 18.7956 39.4454C19.0171 39.362 19.2191 39.2381 19.39 39.0806C19.561 38.9232 19.6975 38.7353 19.7917 38.5278C19.886 38.3202 19.9362 38.0971 19.9395 37.8712C19.9427 37.6452 19.8989 37.4209 19.8106 37.211C19.7227 37.0009 19.592 36.8094 19.426 36.6473C19.26 36.4852 19.0618 36.3558 18.843 36.2664C18.6241 36.177 18.3888 36.1294 18.1506 36.1263C17.9123 36.1232 17.6757 36.1648 17.4544 36.2485C13.2131 37.8125 10.875 40.236 10.875 42.9688C10.875 47.8672 18.6688 51.5625 29 51.5625C39.3312 51.5625 47.125 47.8672 47.125 42.9688C47.125 40.236 44.7869 37.8125 40.5456 36.2485Z" fill="#231F20"/>
<path d="M29 42.9688C29.4579 42.9673 29.8983 42.8015 30.2325 42.5047C43.5 30.6281 46.1644 16.1563 40.9444 9.04064C39.656 7.34353 37.9516 5.96911 35.9782 5.03595C33.8191 3.98488 31.427 3.43665 29 3.43665C26.5731 3.43665 24.181 3.98488 22.0219 5.03595C20.0485 5.96911 18.344 7.34353 17.0557 9.04064C11.8357 16.1563 14.5 30.6281 27.7675 42.5047C28.1018 42.8015 28.5421 42.9673 29 42.9688ZM20.0282 11C20.9723 9.76918 22.2158 8.77271 23.6532 8.09533C25.2956 7.2933 27.1163 6.87487 28.9638 6.87487C30.8112 6.87487 32.6319 7.2933 34.2744 8.09533C35.771 8.75158 37.0726 9.74961 38.0625 11C42.05 16.586 39.6938 28.6172 29 38.8438C18.3063 28.6172 15.95 16.586 20.0282 11Z" fill="#231F20"/>
<path d="M34.4375 15.4688C34.4375 14.4489 34.1186 13.452 33.5211 12.6041C32.9236 11.7562 32.0744 11.0953 31.0808 10.705C30.0873 10.3147 28.994 10.2126 27.9392 10.4116C26.8844 10.6105 25.9156 11.1016 25.1551 11.8227C24.3947 12.5438 23.8768 13.4626 23.667 14.4628C23.4572 15.463 23.5649 16.4998 23.9764 17.442C24.388 18.3841 25.0849 19.1894 25.9791 19.756C26.8733 20.3226 27.9246 20.625 29 20.625C30.4421 20.625 31.8252 20.0818 32.8449 19.1148C33.8646 18.1478 34.4375 16.8363 34.4375 15.4688ZM27.1875 15.4688C27.1875 15.1288 27.2938 14.7965 27.493 14.5139C27.6921 14.2312 27.9752 14.0109 28.3064 13.8808C28.6376 13.7507 29.002 13.7167 29.3536 13.783C29.7052 13.8493 30.0282 14.013 30.2816 14.2534C30.5351 14.4938 30.7077 14.8 30.7777 15.1334C30.8476 15.4668 30.8117 15.8124 30.6745 16.1265C30.5374 16.4406 30.305 16.709 30.007 16.8978C29.7089 17.0867 29.3585 17.1875 29 17.1875C28.5193 17.1875 28.0583 17.0064 27.7184 16.6841C27.3785 16.3618 27.1875 15.9246 27.1875 15.4688Z" fill="#231F20"/>
</svg>
